<svg xmlns="http://www.w3.org/2000/svg" width="26.421" height="24.022" viewBox="0 0 26.421 24.022">
  <path id="wishlist" d="M14.128,20.333l2.256,2.219Zm-.542,1.29a.686.686,0,0,1,0,1.37H1.555a1.5,1.5,0,0,1-1.075-.47h0A1.623,1.623,0,0,1,.03,21.4V1.594A1.613,1.613,0,0,1,.482.475h0A1.5,1.5,0,0,1,1.555,0H19.73a1.5,1.5,0,0,1,1.075.468l.045.051a1.64,1.64,0,0,1,.4,1.075V10.97a.659.659,0,1,1-1.316,0V1.594a.23.23,0,0,0-.047-.139l-.017-.018a.211.211,0,0,0-.151-.067H1.555a.211.211,0,0,0-.151.067h0a.229.229,0,0,0-.062.157V21.4a.228.228,0,0,0,.065.157h0a.211.211,0,0,0,.151.065Zm6.964-6.528c.761-.828,1.29-1.543,2.473-1.684a3.092,3.092,0,0,1,3.112,4.4,10.241,10.241,0,0,1-1.673,2.21c-.781.844-1.641,1.67-2.256,2.3l-1.654,1.708-1.368-1.37c-1.645-1.648-4.321-3.725-4.418-6.3a2.769,2.769,0,0,1,2.875-2.935C19.046,13.442,19.64,14.167,20.55,15.094Zm-15.412,0a.779.779,0,0,1,.72.5.835.835,0,0,1-.173.884.756.756,0,0,1-.851.17.812.812,0,0,1-.475-.755.8.8,0,0,1,.779-.81ZM8.3,16.721a.711.711,0,0,1,0-1.386h2.538a.711.711,0,0,1,0,1.386ZM5.138,10.3a.811.811,0,1,1-.779.808A.8.8,0,0,1,5.138,10.3ZM8.3,11.852a.7.7,0,0,1,0-1.368h5.181a.7.7,0,0,1,0,1.368ZM5.138,5.507a.811.811,0,1,1-.779.81.795.795,0,0,1,.779-.81ZM8.3,7a.629.629,0,0,1-.553-.683A.631.631,0,0,1,8.3,5.628H15.59a.631.631,0,0,1,.563.685A.629.629,0,0,1,15.6,7Z" transform="translate(-0.03)" fill="#005764"/>
</svg>
