<svg xmlns="http://www.w3.org/2000/svg" width="24" height="24.022" viewBox="0 0 24 24.022">
  <g id="Group_85" transform="translate(-94.045 -153)">
    <path id="Vector" d="M22.455,7.065l-8-6.222a4,4,0,0,0-4.911,0l-8,6.222A4,4,0,0,0,0,10.222v10.8a3,3,0,0,0,3,3H21a3,3,0,0,0,3-3v-10.8A4,4,0,0,0,22.455,7.065Z" transform="translate(94.045 153)" fill="#969ca4"/>
    <path id="Vector-2" d="M12,0A12.753,12.753,0,0,1,0,0" transform="translate(100.045 168.5)" fill="none" stroke="#fff" stroke-linecap="round" stroke-linejoin="round" stroke-width="2.5"/>
  </g>
</svg>
